<?xml version="1.0" encoding="UTF-8"?>
<svg id="Layer_1" data-name="Layer 1" xmlns="http://www.w3.org/2000/svg" viewBox="0 0 1263 213">
  <defs>
    <style>
      .cls-1 {
        fill: #fcee21;
      }

      .cls-1, .cls-2, .cls-3, .cls-4, .cls-5 {
        stroke-width: 0px;
      }

      .cls-2 {
        fill: red;
      }

      .cls-3 {
        fill: #f15a24;
      }

      .cls-4 {
        fill: #39b54a;
      }

      .cls-5 {
        fill: blue;
      }
    </style>
  </defs>
  <path class="cls-2" d="m81.93,193.1c-8.77,7.24-20.75,13.69-35.97,19.6-2.57,1-5.26.86-8.11-.39-2.84-1.26-4.73-3.05-5.66-5.39-8.62-21.78-17.24-43.57-25.86-65.35-1.24-2.74-2.46-5.49-3.66-8.25-1.39-3.11-2.33-5.83-2.83-8.15-.9-4.11,2.15-8.04,9.17-11.71,3.11-2.25,8.69-4.92,16.74-7.94,8.65-3.24,17.89-3.75,27.62-1.5,11.4,2.6,18.58,8.43,21.67,17.32,1.67,4.8,2.13,9.18,1.4,13.13-.55,3.19-2.12,6.95-4.69,11.28,5.02.42,9.89,2.04,14.59,4.86,5.31,3.12,8.69,6.89,10.2,11.28,1.91,5.56.52,11.92-4.06,19.09-3.07,4.77-6.59,8.81-10.57,12.12Zm-49.86-70.76c-5.84,2.19-9.33,3.58-10.47,4.11,1.7,4.37,3.39,8.74,5.09,13.1,1.63,4.34,3.27,8.69,4.9,13.03,4.22-1.09,7.32-2.09,9.31-3.03,13.24-6.1,18.41-13.2,15.4-21.57-1.06-2.95-4.12-5.07-9.2-6.32-5.26-1.33-10.28-1.1-15.03.68Zm24.18,41.02c-4.01,1.48-10.06,3.56-18.13,6.32,2.95,7.72,5.9,15.44,8.86,23.16,7.31-3.22,14.88-7.62,22.79-13.18,6.92-4.87,9.94-8.46,9-10.85-1.27-3.16-4.77-5.13-10.52-5.88-4.51-.63-8.51-.48-11.99.43Z"/>
  <path class="cls-3" d="m148.03,91.72c-2.2.66-8.41,1.84-18.63,3.7,1.76,7.97,4.63,18.39,8.62,31.27,2.91,9.49,5.82,18.97,8.73,28.46,5.83-1.94,11.8-3.82,17.91-5.64,2.66-.79,5.11-.59,7.35.6,2.24,1.19,3.71,2.97,4.4,5.35.69,2.38.39,4.66-.89,6.85-1.28,2.19-3.26,3.68-5.94,4.48-2.5.74-6.24,1.92-11.21,3.55-4.97,1.63-8.7,2.85-11.19,3.63-2.94.92-7.24,2.68-12.87,5.3-5.63,2.63-9.9,4.44-12.82,5.41-2.66.88-5.14.79-7.45-.27-2.31-1.06-3.86-2.77-4.66-5.11-.79-2.34-.55-4.67.73-6.96,1.28-2.3,3.33-3.92,6.15-4.85,3.19-1.06,7.28-2.75,12.3-5.07-1.69-4.93-4.8-14.43-9.33-28.48-3.69-11.44-6.76-22.5-9.19-33.19-4.92,1.72-9.83,3.47-14.74,5.23-2.74.91-5.3.86-7.69-.16-2.4-1.01-4.01-2.73-4.83-5.16-.84-2.47-.63-4.78.63-6.93,1.17-1.98,2.92-3.48,5.27-4.49,3.82-1.64,10.6-4.07,20.36-7.19,8.78-2.8,20.39-5.45,34.8-7.78,5.74-.91,9.36,1.22,10.85,6.35.79,2.72.35,5.17-1.31,7.36-1.36,1.82-3.13,3.06-5.33,3.71Z"/>
  <path class="cls-1" d="m256.99,144.56c-2.39.57-4.79.19-7.22-1.13-16.36-8.96-33.44-13.61-50.96-13.89,3.86,12.28,5.97,19.1,6.34,20.47.66,2.43.33,4.73-.96,6.89-1.3,2.16-3.26,3.61-5.89,4.34-2.63.73-5.06.5-7.29-.68-2.23-1.18-3.69-2.99-4.38-5.41-.91-3.19-2.22-7.97-3.93-14.36-1.72-6.38-3.02-11.17-3.93-14.36-4.82-17.17-9.64-34.34-14.46-51.51-.78-2.76-.59-5.53.59-8.3,1.56-3.56,4.49-5.78,8.78-6.64,11.56-2.35,17.5-3.46,17.79-3.49,6.74-1,12.68-1,17.81-.02,22.31,4.17,34.86,13.42,38.06,27.09,1.32,5.64.43,11.1-2.61,16.39-3.04,5.29-8.24,10.4-15.57,15.37,13.54,3.36,24.03,7.74,31.56,12.98,1.96,1.36,3.19,3.1,3.67,5.21.56,2.41.1,4.71-1.35,6.88-1.46,2.18-3.46,3.57-6.03,4.18Zm-63.87-69.93c-.38.06-3.13.6-8.26,1.67,3.07,11.33,6.15,22.65,9.22,33.98,1.14-.26,2.15-.51,3.01-.74,11.1-2.99,19-6.4,23.71-10.37,2.04-1.7,3.8-3.71,5.29-6.04,1.48-2.33,2.11-3.96,1.88-4.91-1.19-4.8-5.59-8.64-13.27-11.44-7.3-2.62-14.51-3.33-21.58-2.14Z"/>
  <path class="cls-4" d="m342.11,45.22c-3.66.63-9.39,1.38-17.21,2.32-7.53.88-13.26,1.76-17.19,2.56,1.14,4.91,3.48,13.6,6.98,26.07,3.12,11.01,5.29,19.78,6.54,26.29.28,1.48.86,3.64,1.73,6.49.87,2.85,1.45,5.01,1.73,6.49.62,3.26.46,6.32-.47,9.2-1.19,3.7-3.47,5.87-6.85,6.54-2.45.48-4.76.16-6.93-.98-2.44-1.27-3.92-3.17-4.44-5.73-.12-.61-.2-1.55-.23-2.83-.03-1.28-.11-2.25-.24-2.89-.4-1.99-1.16-4.97-2.28-8.94-1.11-3.97-1.88-6.97-2.29-9.01-1.18-5.8-3.26-13.57-6.26-23.29-3.44-11.16-5.71-18.88-6.79-23.18-1.21.25-2.43.5-3.64.75-10.41,2.17-18.8,3.29-25.22,3.28-5.43,0-8.67-2.23-9.7-6.71-.5-2.2-.11-4.37,1.18-6.52,1.49-2.56,3.87-4.09,7.13-4.59,1.67-.28,5.5-.75,11.48-1.36,4.77-.53,8.59-1.08,11.47-1.68,2.88-.6,7.17-1.53,12.89-2.77,5.72-1.23,10.03-2.11,12.91-2.67,3.59-.69,9.03-1.49,16.31-2.35,7.28-.85,12.72-1.56,16.32-2.19,2.84-.49,5.37-.04,7.57,1.33,2.2,1.38,3.51,3.31,3.92,5.8.41,2.49-.19,4.75-1.8,6.79-1.61,2.04-3.82,3.3-6.63,3.79Z"/>
  <path class="cls-5" d="m455.87,16.6c-.62,3.32-.8,6.18-.56,8.56.13,1.24.2,3.16.2,5.77,0,2.61.08,4.53.21,5.77.44,4.19.85,10.44,1.25,18.75.4,8.31.82,14.56,1.26,18.75.34,3.22,1.1,8.01,2.27,14.36,1.17,6.35,1.92,11.14,2.25,14.36.25,2.43-.41,4.57-1.99,6.44-1.58,1.86-3.67,2.93-6.27,3.22-2.65.29-5.03-.28-7.15-1.7-2.12-1.43-3.32-3.32-3.6-5.69-.37-3.2-1.07-8-2.11-14.37-1.04-6.38-1.75-11.17-2.12-14.37-.29-2.5-.5-4.72-.64-6.67-7.2,1.15-16.02,3.31-26.39,6.56-8.62,2.71-17.2,5.5-25.75,8.39.32,2.79.69,7.47,1.12,14.04.4,5.78.88,10.49,1.43,14.12.34,2.25-.25,4.27-1.76,6.09-1.51,1.82-3.56,2.92-6.15,3.33-2.59.4-4.89-.06-6.89-1.4-2-1.34-3.2-3.18-3.58-5.52-.7-4.3-1.35-10.8-1.93-19.49-.59-8.69-1.21-15.19-1.9-19.49-.88-5.45-2.06-13.69-3.53-24.7-1.48-11.02-2.65-19.25-3.52-24.71-.37-2.34.23-4.47,1.83-6.39,1.6-1.91,3.78-3.09,6.54-3.51,2.76-.43,5.2.06,7.31,1.44,2.11,1.38,3.33,3.28,3.69,5.68.49,3.32,1.1,8.34,1.83,15.04.73,6.71,1.35,11.72,1.84,15.04.16,1.09.31,3.22.45,6.37.15,2.93.37,5.15.64,6.67,8.64-2.9,17.31-5.73,26.02-8.49,10.21-3.14,19.13-5.25,26.69-6.4-.16-2.99-.79-11.02-1.87-24.07-.3-3.43.35-7.48,1.99-12.17,2.04-5.76,4.78-8.83,8.18-9.2,2.54-.27,4.87.26,6.99,1.6,2.28,1.46,3.54,3.45,3.8,5.97.07.66.04,1.33-.08,2.02Z"/>
  <path class="cls-2" d="m489.28,106.87c-2.66.19-4.97-.5-6.93-2.07-1.96-1.57-3.07-3.59-3.3-6.05-.41-4.4-.82-11.02-1.2-19.87-.38-8.84-.78-15.46-1.19-19.87-.45-4.89-1.24-12.2-2.36-21.95-1.12-9.75-1.91-17.07-2.37-21.95-.23-2.42.81-4.95,3.13-7.58,2.32-2.63,4.92-4.07,7.8-4.32,1.58-.14,5.68.88,12.26,3.11,7.67,2.68,12.18,4.2,13.6,4.49,14.28,3.19,26.57,9,36.78,17.29,12.19,9.88,18.38,21.25,18.89,33.92.31,7.64-1.37,14.98-4.95,22.04-3.57,7.19-8.59,13.06-15.05,17.66-7.24,5.17-17.58,8.16-31.1,9.14-3.28.24-7.08.06-11.43-.52-5.26-.73-9.46-1.88-12.59-3.47Zm33.63-70.9c-4.73-2.39-14.79-6.01-30.35-10.55,1.78,21.81,3.56,43.61,5.34,65.42,1.86.96,3.96,1.62,6.3,1.99,2.34.37,4.91.45,7.73.25,9.81-.72,16.76-2.47,20.88-5.38,3.9-2.76,6.94-6.36,9.11-10.81,2.17-4.45,3.15-9.02,2.91-13.7-.56-10.94-7.78-20.1-21.92-27.22Z"/>
  <path class="cls-3" d="m654.85,102.18c-3.56-.19-7.09-4.34-10.66-12.46-2.37-5.23-4.41-11.26-6.13-18.07-3.4.47-8.97.94-16.68,1.47-7.26.53-12.8,1.18-16.65,1.9-2.03,4.9-5.57,12.27-10.52,22.15-1.92,3.23-4.63,4.88-8.15,4.98-2.48.07-4.74-.69-6.78-2.29-2.04-1.59-3.11-3.67-3.2-6.23-.07-2.25,2.95-10.01,9.3-23.24-.68-1.35-1-2.63-.94-3.82.12-2.13,2.32-3.85,6.59-5.15,6.31-11.03,13.48-22.44,21.57-34.19,11.64-16.87,19.1-25.23,21.87-25.22,5.27.01,8.78,2.98,10.49,8.87.91,4.74,2.35,11.84,4.27,21.32,2.73,12.76,6.02,27.37,9.78,43.83.3,1.24,1.42,4.18,3.34,8.81,1.57,3.83,2.32,6.7,2.29,8.6-.05,2.56-1.08,4.69-3.08,6.37-2,1.69-4.23,2.47-6.71,2.34Zm-25.3-68.2c-3.66,5.93-8.68,14.01-14.93,24.28,2.08-.46,5.32-.85,9.73-1.13,5.19-.33,8.47-.56,9.81-.74-1.1-5.75-2.63-13.22-4.61-22.41Z"/>
  <path class="cls-1" d="m759.6,23.07c-2.76,4.45-8.38,14.08-16.59,28.99-6.82,12.48-12.44,22.28-16.99,29.36-7.86,12.3-11.94,18.85-12.49,19.57-2.86,3.7-6.01,5.48-9.48,5.32-2.48-.11-4.62-1-6.45-2.67-2-1.85-2.96-4.08-2.85-6.68.1-2.16,5.13-11.1,15.51-26.66-3.31-5.07-8.06-12.75-14.39-22.99-4.76-7.53-11.78-18.86-21.34-33.92-.91-1.53-1.35-3.11-1.31-4.74.06-2.56,1.19-4.7,3.4-6.41,2.06-1.58,4.43-2.33,7.12-2.25,3.17.1,6,1.68,8.48,4.73,1.7,2.71,3.39,5.43,5.07,8.15.3.55,4.19,7.14,11.4,19.86,4.53,8.13,8.51,14.59,11.98,19.38,3.9-6.56,9.58-16.49,17.22-29.74,1.61-2.95,4.04-7.43,7.32-13.41,2.08-3.85,5.33-5.62,9.74-5.3,2.63.19,4.9,1.16,6.79,2.9,2.07,1.89,3,4.13,2.79,6.73-.12,1.5-1.77,4.76-4.91,9.8Z"/>
  <path class="cls-2" d="m862.63,63.76c-3.07,6.8-7.47,17.1-13.08,30.93-1.53,4.83-3.02,9.65-4.49,14.45-2.68,5.98-6.46,8.64-11.38,8.02-3.09-.39-5.4-1.72-6.95-4-1.31-1.94-1.83-4.12-1.54-6.53.86-7.11,3.45-15.59,7.87-25.42,6.61-14.73,10.3-22.87,10.88-24.49,2.21-6.58,4.47-13.15,6.76-19.72,3.33-9.01,6.47-14.9,9.38-17.65,2.91-2.75,6.28-3.86,10.1-3.33,4.34.61,7.24,3.09,8.69,7.41,1.34,4.08,2.23,12.17,2.62,24.25.35,11.72,1.53,24.46,3.46,38.22,7.23-12.16,14.41-25.6,21.55-40.33,2.14-4.8,4.29-9.6,6.45-14.39,3.59-5.81,8.09-8.26,13.46-7.32,5.18.9,8.38,5.21,9.57,12.88.51,3.1.63,8.74.33,16.91-.69,19.02-.28,35.5,1.2,49.46,1.48,14.18,2.03,21.86,1.81,23.03-.5,2.56-1.96,4.5-4.38,5.84-2.26,1.19-4.6,1.55-7.05,1.1-4.84-.91-7.82-4.95-8.97-12.16-.31-5.49-.62-10.98-.95-16.47-.78-8.22-1.16-19.89-1.21-35.01-3.09,5.48-8.1,14.05-14.92,25.78-2.03,3.78-4.06,7.57-6.07,11.36-2.45,4.48-4.82,8.1-7.1,10.87-3.03,3.68-6.65,5.18-10.9,4.52-4.2-.65-7.05-3.56-8.58-8.74-.66-4.25-1.32-8.51-2-12.76-1.9-11.71-3.43-23.94-4.57-36.69Z"/>
  <path class="cls-3" d="m992.63,145.05c-13.08-3-23.42-9.07-31.19-18.35-8.28-9.93-11.3-21.11-8.83-33.65,2.91-14.74,10.44-27.24,22.89-37.31,13.96-11.33,29.71-15.06,46.79-11.08,16.42,3.84,27.85,10.38,34.18,19.31,6.34,8.94,7.61,20.29,3.98,34-3.85,14.53-11.79,26.49-23.55,36.07-13.58,11.08-28.2,14.71-44.28,11.01Zm25.58-82.89c-10.38-2.42-20.36.25-29.74,7.98-8.79,7.23-14.22,16.22-16.46,26.86-1.51,7.18.19,13.63,5.02,19.37,4.65,5.53,11.16,9.22,19.61,11.16,9.83,2.26,19.1-.42,27.99-8.06,8.15-6.96,13.65-15.78,16.36-26.54,2.27-9,1.69-15.81-1.79-20.4-3.33-4.38-10.34-7.88-21-10.37Z"/>
  <path class="cls-1" d="m1068.2,160.83c-2.58-.77-4.51-2.23-5.81-4.4-1.3-2.17-1.62-4.44-.97-6.83,1.17-4.26,3.13-10.6,5.9-19.01,2.77-8.41,4.74-14.74,5.91-19,1.3-4.73,3.15-11.85,5.54-21.37,2.39-9.52,4.24-16.64,5.54-21.38.64-2.34,2.51-4.34,5.63-5.98,3.11-1.64,6.08-2.06,8.88-1.27,1.54.44,5.05,2.85,10.47,7.27,6.29,5.23,10.02,8.26,11.25,9.04,12.36,8.07,21.93,17.88,28.66,29.28,8.04,13.59,9.88,26.45,5.87,38.47-2.42,7.26-6.6,13.52-12.49,18.84-5.93,5.45-12.76,9.15-20.5,11.14-8.68,2.25-19.52,1.35-32.64-2.54-3.18-.94-6.71-2.46-10.61-4.55-4.71-2.56-8.26-5.12-10.66-7.72Zm56.86-54.35c-3.63-3.92-11.86-10.89-24.93-20.68-6.04,21.03-12.08,42.06-18.11,63.09,1.42,1.56,3.17,2.92,5.24,4.1,2.07,1.18,4.48,2.17,7.21,2.98,9.52,2.82,16.71,3.66,21.64,2.41,4.67-1.19,8.82-3.47,12.45-6.86,3.63-3.39,6.18-7.31,7.6-11.77,3.34-10.43-.25-21.58-11.1-33.28Z"/>
  <path class="cls-4" d="m1249.26,131.09c-.9-.35-1.8-.84-2.7-1.47-6.61-4.64-13.4-8.26-20.34-10.84-3.4-1.27-7.15-2.36-11.24-3.29-4.09-.92-8.52-1.67-13.29-2.24-1.97,5.54-5.1,13.69-9.37,24.46,2.57.73,11.59,3.03,27.06,7.24,8.82,2.4,14.36,4.09,16.63,4.96,2.63,1.01,4.58,2.66,5.84,4.93,1.26,2.27,1.39,4.69.39,7.24-1.92,4.9-5.81,6.57-11.65,5.07-3.62-1.11-9.04-2.72-16.28-4.77-6.52-1.68-16.27-4.38-29.28-7.91-2.18,5.18-3.85,9.4-5,12.65-2.89,8.17-4.03,12.99-3.43,14.47.29.71,2.93,1.95,7.93,3.75,2.69.97,6.78,2.38,12.24,4.26,5.47,1.88,9.54,3.34,12.22,4.36.87.33,2.19.69,3.97,1.08,1.78.4,3.08.75,3.9,1.07,2.51.96,4.38,2.47,5.62,4.52,1.43,2.31,1.6,4.85.52,7.61-1.81,4.61-5.39,6.38-10.73,5.36-4.58-.86-13.59-3.89-27.1-8.84-13.99-5.11-22.5-10.1-25.52-15.27-3.31-5.68-2.7-15.27,1.89-28.79,1.91-5.61,5.2-13.88,9.91-24.82,4.71-10.93,8.03-19.18,9.93-24.74.5-1.46,1.01-3.71,1.54-6.73.52-3.02,1.03-5.26,1.53-6.73,2.16-6.36,6.48-8.45,12.93-6.2,2.03.7,3.71,1.88,5.04,3.52,5.76.67,11.15,1.57,16.17,2.71,5.02,1.14,9.66,2.5,13.93,4.09,11.55,4.3,20.31,9.06,26.25,14.13,3.62,3.08,4.68,6.52,3.18,10.3-.85,2.14-2.41,3.7-4.68,4.71-2.55,1.18-5.22,1.22-8.01.14Z"/>
</svg>