<svg id="Layer_1" data-name="Layer 1" xmlns="http://www.w3.org/2000/svg" viewBox="0 0 3019 508"><title>bg2</title><path d="M0,251C0,388.74.2,501.53.4,501.53s2.8-.5,5.7-1.2A129.41,129.41,0,0,1,23.5,499c13.6-.2,31.7-3.39,37.6-6.68,4.5-2.5,5.9-5.29,5.9-12.08.1-5.49,1.3-8,5.6-10.78,2.5-1.6,2.8-1.6,6.8.2a21.17,21.17,0,0,0,6.1,1.89c3.9.1,10.3,3.8,11.9,6.89a9,9,0,0,0,3.4,3.59c2.9.8,30.5-5.19,39.6-8.68,14.1-5.39,17.9-4.09,24.2,8.49,1.9,3.69,4,6.88,4.7,7.08s7.6,1.4,15.5,2.6c10.2,1.59,16.5,2.09,21.9,1.69,6.9-.5,8.3-.3,13.7,2.1S227.7,498,238,498c6.3,0,12.1.4,12.9.9s6.8.8,13.5.6c25.4-.7,27.3-.6,29.4,1.3,1.6,1.5,2.5,1.6,4.1.8,2.5-1.4,27.8-1.5,28.6-.1.3.5,2.4,1,4.5,1,3.2,0,4.3-.5,5.7-2.6,1.6-2.49,2-2.59,7.2-2,6.5.8,9.5,2.5,11.6,6.49s4,4.39,13,2.1a67.72,67.72,0,0,1,13.6-2c4,0,7-.6,9.6-2.09,6.3-3.5,7.4-5.09,8.9-13.48,2.1-11.38,2.7-12.57,6.7-12.18,3.1.3,3.2.5,3.7,5.39.6,6,1.7,7.59,7.9,11.18a34.7,34.7,0,0,1,6.8,4.89c1.8,1.9,3.2,2.3,8,2.3a111.21,111.21,0,0,1,15.8,1.7c9,1.49,11.7,1.49,26.1.3,12.8-1,17-1,21.1-.1s5.6,1,7.5,0c3.5-1.9,32.2-2.5,42.4-.9,7.2,1.1,9.5,1.1,16.1-.2,8.2-1.6,19.8-6.69,23.8-10.38,2-1.8,2.3-2.9,1.8-5.79-.7-4.59,1.3-7.69,7.3-11.18l4.6-2.69,21.7.59c28.9.9,44.4,2.3,51.1,4.8,8.2,3,18.9,9,27.2,15.27,10.9,8.18,12.4,8.58,29.1,8.58,9.7,0,16.2.5,20.2,1.6,3.3.79,7.4,1.19,9,.89,5.1-1.09,52.2-2.79,70.3-2.59,15.4.2,18.1,0,24.9-2,7.5-2.29,7.6-2.29,14.7-.4,8.8,2.2,47.5,3.1,60.1,1.3,9.6-1.4,10.2-1.4,18.5.2,5.1.9,14,.9,41.5-.2,19.3-.7,45.6-1.2,58.5-1.1,93.6.8,134.6.6,137.4-.6,1.7-.59,6.9-3.69,11.8-6.78,7.7-4.79,9.2-5.49,12.2-4.89s3.7.3,5.2-1.9c2.5-3.89,7.4-3.49,9.4.8,1.4,2.89,2,3.19,6.6,3.49,4.3.3,5.5-.1,8.8-2.79,4.5-3.5,6.9-3.79,9.2-1.1,6.9,8.28,12.9,13,19.4,15.47,1.4.5,15.3.9,31,1,22.3.1,29.2.4,31.5,1.5,4.4,2.09,20.9,1.79,35-.6,22.3-3.9,28.1-3.7,39.2.9,5.1,2.09,5.7,2.09,11.6.79,3.8-.89,12.5-1.49,22.2-1.49,8.8-.1,18.8-.7,22.2-1.5,8-1.6,15.6-.9,19.3,1.9,3.5,2.49,6.4,2.69,11.6.49,3.1-1.29,5.8-1.49,13.3-1,5.1.3,9.9,1,10.6,1.59.9.7,2.6.4,5.8-1,6.8-3,15.8-3.5,27.3-1.6a122.8,122.8,0,0,0,22.9,1.4c12.4-.2,13.3-.1,19.5,2.69,10.1,4.39,20.7,4.59,38,.7,19.5-4.49,29.7-5.59,42-4.69,27.7,2,42.1.5,54.2-5.59,5.2-2.6,6.8-3,10.2-2.3a178.52,178.52,0,0,0,19.1.8c14.1.1,15.3.3,20,2.7,6.4,3.29,16.8,4.29,26.5,2.49,5.1-1,8.2-1.1,11.7-.3a76.42,76.42,0,0,0,12.8.8c20.9-.5,29.1-.4,56.5.8,32.4,1.4,37.9,1.2,61.7-2.5l16.3-2.59,10.7,2.79c11.5,3,22.5,3.6,27.6,1.5,2.2-.9,4-.8,8.2.4s10.8,1.6,31.6,1.6c18.8,0,30.1.4,39.2,1.59,10.7,1.4,13.9,1.5,20,.5,5.2-.9,24.9-1.19,69.7-1.19,53.1,0,63.8-.2,71.9-1.6,8.9-1.5,10.6-1.5,25.9.1,14,1.6,18,1.6,28,.6a157.8,157.8,0,0,0,16.2-2.3c8.1-2,10.5-2,14.6-.2,3.2,1.5,6.7,1.9,18.9,2,21.7.2,48.3,1.1,49.3,1.79.5.3,5.8.1,11.8-.49,6.8-.6,47-1,106.4-.9,82.9.1,96.3-.1,101.3-1.5,7.4-1.9,13.4-1.9,19.2,0,3.8,1.4,10,1.6,38.8,1.3,38.4-.3,37.4-.1,42.2-7.79,2-3.09,2.5-5.29,2.5-10v-6h3.4a11.26,11.26,0,0,0,5.9-2c3.3-2.6,4.3-2.6,12.2,1.1,8.9,4.19,13.9,4.69,20,2,4.3-1.9,5.5-2,10.1-1.1,7.8,1.6,13.1-.1,21.5-7.08,5.6-4.69,8.6-5.89,14.6-5.89s9.9,2,17.5,9.38c8.3,7.89,17.5,12.68,30.7,16.07,5.7,1.4,13.3,4.09,16.8,6,7.4,3.89,9.2,3.69,13.5-1.6,4.1-5.09,6.8-5.09,10.9.1,3.7,4.59,12.8,9.58,19.3,10.48,5.4.9,13.8-.8,23.4-4.69,10.4-4.09,14.6-4.69,21.7-3a77.91,77.91,0,0,0,16.9,1.39c8.6,0,11.3.3,12.5,1.5s3,1.4,9,.9c4-.3,11.6-.6,16.8-.6h9.3V.49H0Z" transform="translate(0 -0.49)"/></svg>